<svg width="55" height="56" viewBox="0 0 55 56" fill="none" xmlns="http://www.w3.org/2000/svg">
<g clip-path="url(#clip0_520_6)">
<path d="M51.2048 55.1289C51.1071 55.092 51.0113 55.0404 50.9099 55.022C46.8743 54.3088 42.8386 53.5901 38.8011 52.8936C37.8999 52.7388 37.0301 52.5213 36.0645 52.8438C31.9072 54.2351 27.6486 54.4949 23.3365 53.7284C16.7375 52.5545 11.2589 49.3831 7.04448 44.1957C1.7723 37.7054 -0.118392 30.2569 1.36504 22.0308C2.61997 15.0706 6.18759 9.46302 11.867 5.27991C18.0643 0.713512 25.0337 -0.86759 32.6148 0.448152C39.2783 1.60542 44.733 4.89661 48.9971 10.1246C52.1962 14.046 54.1145 18.5424 54.7724 23.5695C55.2607 27.2993 54.9862 30.9682 53.9431 34.5801C53.0052 37.8344 51.5033 40.8068 49.432 43.4862C49.1888 43.7995 49.174 44.0409 49.3288 44.3965C50.534 47.1515 51.7152 49.9156 52.9038 52.6761C53.4327 53.9053 53.2171 54.5373 52.0617 55.1289H51.2011H51.2048ZM47.7164 48.1318C47.2078 46.9488 46.7158 45.7565 46.1777 44.5863C45.8165 43.7976 45.8902 43.125 46.4541 42.4524C48.507 40.0089 50.0088 37.2576 50.9413 34.2041C51.5512 32.2103 51.894 30.1758 51.988 28.0861C52.2017 23.2931 51.0961 18.8243 48.6028 14.7499C44.7772 8.4974 39.2396 4.59809 31.992 3.35421C24.8623 2.13061 18.3794 3.79832 12.735 8.34076C8.15383 12.0282 5.24777 16.812 4.26005 22.6278C2.78398 31.3165 5.30121 38.7576 11.6846 44.8185C15.1066 48.0692 19.2308 50.0354 23.893 50.8297C27.8734 51.5078 31.793 51.2388 35.5946 49.8696C36.7335 49.4586 37.7783 49.7129 38.86 49.8991C42.2286 50.4795 45.5935 51.0821 48.9603 51.6737C49.0266 51.6847 49.0966 51.6681 49.2238 51.6626C48.7097 50.4593 48.2121 49.2965 47.7127 48.1337L47.7164 48.1318Z" fill="#5A5A5A"/>
<path d="M36.7302 29.0643C37.014 29.0643 37.3125 29.0643 37.5797 29.1453C38.2302 29.3388 38.6559 30.0299 38.5803 30.6896C38.5029 31.3751 37.9722 31.9077 37.2812 31.9906C37.1209 32.009 36.9587 32.0164 36.7984 32.0164C30.9015 32.0164 25.0028 32.0201 19.1059 32.0127C18.8073 32.0127 18.4885 31.9851 18.214 31.8819C17.5837 31.6441 17.2097 30.9531 17.3184 30.3302C17.4418 29.6152 17.9947 29.1177 18.717 29.0735C18.9142 29.0624 19.1114 29.0643 19.3086 29.0643C22.1944 29.0643 33.8112 29.0624 36.732 29.0679L36.7302 29.0643Z" fill="#5A5A5A"/>
<path d="M22.7784 21.6581C24.0334 21.6581 25.2883 21.6544 26.5414 21.6581C27.5439 21.6618 28.2331 22.2589 28.2478 23.1268C28.2625 24.0132 27.5604 24.6434 26.534 24.6453C24.0242 24.6508 21.5161 24.6508 19.0063 24.6453C18.0038 24.6434 17.3128 24.0408 17.2962 23.1729C17.2796 22.2939 17.9891 21.6618 19.0137 21.6581C20.2686 21.6544 21.5235 21.6581 22.7766 21.6581H22.7784Z" fill="#5A5A5A"/>
</g>
<defs>
<clipPath id="clip0_520_6">
<rect width="54.1316" height="55.1285" fill="white" transform="translate(0.877075)"/>
</clipPath>
</defs>
</svg>
